{
  "accessors": [
    {
      "bufferView": 2,
      "componentType": 5126,
      "count": 192,
      "max": [
        34.08255386352539,
        -0.5801275968551636,
        12.89600944519043
      ],
      "min": [
        -13.740216255187988,
        -4.423840045928955,
        10.255605697631836
      ],
      "type": "VEC3"
    },
    {
      "bufferView": 2,
      "byteOffset": 2304,
      "componentType": 5126,
      "count": 192,
      "max": [
        0.7587806582450867,
        0.6993661522865295,
        0.7147651314735413
      ],
      "min": [
        -0.7587810754776001,
        -0.6993663907051086,
        -0.7147651314735413
      ],
      "type": "VEC3"
    },
    {
      "bufferView": 1,
      "componentType": 5126,
      "count": 192,
      "max": [
        0.8196310997009277,
        0.8610538244247437
      ],
      "min": [
        0.0006277859210968018,
        0.0034627169370651245
      ],
      "type": "VEC2"
    },
    {
      "bufferView": 0,
      "componentType": 5125,
      "count": 744,
      "type": "SCALAR"
    },
    {
      "bufferView": 2,
      "byteOffset": 4608,
      "componentType": 5126,
      "count": 5056,
      "max": [
        27.353164672851563,
        2.3691954612731934,
        7.829472541809082
      ],
      "min": [
        -28.854145050048828,
        -1.5491520166397095,
        -7.913116455078125
      ],
      "type": "VEC3"
    },
    {
      "bufferView": 2,
      "byteOffset": 65280,
      "componentType": 5126,
      "count": 5056,
      "max": [
        1.0,
        1.0,
        0.997572660446167
      ],
      "min": [
        -1.0,
        -1.0,
        -0.9970093369483948
      ],
      "type": "VEC3"
    },
    {
      "bufferView": 1,
      "byteOffset": 1536,
      "componentType": 5126,
      "count": 5056,
      "max": [
        0.9745829105377197,
        0.9745385050773621
      ],
      "min": [
        0.08694300800561905,
        0.0011022264370694757
      ],
      "type": "VEC2"
    },
    {
      "bufferView": 0,
      "byteOffset": 2976,
      "componentType": 5125,
      "count": 8340,
      "type": "SCALAR"
    },
    {
      "bufferView": 2,
      "byteOffset": 125952,
      "componentType": 5126,
      "count": 132,
      "max": [
        37.42318344116211,
        3.327381134033203,
        13.548527717590332
      ],
      "min": [
        -30.580215454101563,
        -1.9441312551498413,
        -1.3651812076568604
      ],
      "type": "VEC3"
    },
    {
      "bufferView": 2,
      "byteOffset": 127536,
      "componentType": 5126,
      "count": 132,
      "max": [
        0.7071067094802856,
        0.5773506164550781,
        0.9486834406852722
      ],
      "min": [
        -0.7071065902709961,
        -0.5773507952690125,
        -0.5773504376411438
      ],
      "type": "VEC3"
    },
    {
      "bufferView": 1,
      "byteOffset": 41984,
      "componentType": 5126,
      "count": 132,
      "max": [
        0.9921420812606812,
        0.9988977909088135
      ],
      "min": [
        0.0011022264370694757,
        0.0011022264370694757
      ],
      "type": "VEC2"
    },
    {
      "bufferView": 0,
      "byteOffset": 36336,
      "componentType": 5125,
      "count": 216,
      "type": "SCALAR"
    }
  ],
  "asset": {
    "extras": {
      "author": "BarrySArt (https://sketchfab.com/BarrySArt)",
      "license": "CC-BY-4.0 (http://creativecommons.org/licenses/by/4.0/)",
      "source": "https://sketchfab.com/3d-models/electric-meter-with-fuse-boxes-33c41e0176cd41d8bbc40185683ee441",
      "title": "Electric Meter with fuse boxes"
    },
    "generator": "Sketchfab-14.2.0",
    "version": "2.0"
  },
  "bufferViews": [
    {
      "buffer": 0,
      "byteLength": 37200,
      "name": "floatBufferViews",
      "target": 34963
    },
    {
      "buffer": 0,
      "byteLength": 43040,
      "byteOffset": 37200,
      "byteStride": 8,
      "name": "floatBufferViews",
      "target": 34962
    },
    {
      "buffer": 0,
      "byteLength": 129120,
      "byteOffset": 80240,
      "byteStride": 12,
      "name": "floatBufferViews",
      "target": 34962
    }
  ],
  "buffers": [
    {
      "byteLength": 209360,
      "uri": "scene.bin"
    }
  ],
  "extensionsUsed": [
    "KHR_materials_unlit"
  ],
  "images": [
    {
      "uri": "textures/metertex_baseColor.png"
    }
  ],
  "materials": [
    {
      "doubleSided": true,
      "extensions": {
        "KHR_materials_unlit": {}
      },
      "name": "metertex",
      "pbrMetallicRoughness": {
        "baseColorTexture": {
          "index": 0
        },
        "metallicFactor": 0.0
      }
    },
    {
      "doubleSided": true,
      "extensions": {
        "KHR_materials_unlit": {}
      },
      "name": "wires",
      "pbrMetallicRoughness": {
        "baseColorFactor": [
          0.0100217,
          0.0100217,
          0.0100217,
          1.0
        ],
        "metallicFactor": 0.0
      }
    },
    {
      "doubleSided": true,
      "extensions": {
        "KHR_materials_unlit": {}
      },
      "name": "electrictex",
      "pbrMetallicRoughness": {
        "baseColorTexture": {
          "index": 0
        },
        "metallicFactor": 0.0
      }
    }
  ],
  "meshes": [
    {
      "name": "ElectricMeterWBoxes_metertex_0",
      "primitives": [
        {
          "attributes": {
            "NORMAL": 1,
            "POSITION": 0,
            "TEXCOORD_0": 2
          },
          "indices": 3,
          "material": 0,
          "mode": 4
        }
      ]
    },
    {
      "name": "ElectricMeterWBoxes_wires_0",
      "primitives": [
        {
          "attributes": {
            "NORMAL": 5,
            "POSITION": 4,
            "TEXCOORD_0": 6
          },
          "indices": 7,
          "material": 1,
          "mode": 4
        }
      ]
    },
    {
      "name": "ElectricMeterWBoxes_electrictex_0",
      "primitives": [
        {
          "attributes": {
            "NORMAL": 9,
            "POSITION": 8,
            "TEXCOORD_0": 10
          },
          "indices": 11,
          "material": 2,
          "mode": 4
        }
      ]
    }
  ],
  "nodes": [
    {
      "children": [
        1
      ],
      "matrix": [
        1.0,
        0.0,
        0.0,
        0.0,
        0.0,
        2.220446049250313e-16,
        -1.0,
        0.0,
        0.0,
        1.0,
        2.220446049250313e-16,
        0.0,
        0.0,
        0.0,
        0.0,
        1.0
      ],
      "name": "Sketchfab_model"
    },
    {
      "children": [
        2
      ],
      "matrix": [
        0.009999999776482582,
        0.0,
        0.0,
        0.0,
        0.0,
        0.0,
        0.009999999776482582,
        0.0,
        0.0,
        -0.009999999776482582,
        0.0,
        0.0,
        0.0,
        0.0,
        0.0,
        1.0
      ],
      "name": "electricmeter.fbx"
    },
    {
      "children": [
        3,
        6,
        10,
        13
      ],
      "name": "RootNode"
    },
    {
      "children": [
        4
      ],
      "matrix": [
        -29.08647719990347,
        -5.518906457566863,
        -95.51711910171437,
        0.0,
        56.63930913109449,
        79.46723428563203,
        -21.83912397841966,
        0.0,
        77.11008775993375,
        -60.45246356562044,
        -19.98834696773717,
        0.0,
        -649.7869262695313,
        339.4195556640625,
        125.38304138183594,
        1.0
      ],
      "name": "Lamp.003"
    },
    {
      "children": [
        5
      ],
      "matrix": [
        1.0,
        0.0,
        0.0,
        0.0,
        0.0,
        2.220446049250313e-16,
        1.0,
        0.0,
        0.0,
        -1.0,
        2.220446049250313e-16,
        0.0,
        0.0,
        0.0,
        0.0,
        1.0
      ],
      "name": "Object_4"
    },
    {
      "name": "Object_5"
    },
    {
      "children": [
        7,
        8,
        9
      ],
      "matrix": [
        7.87713098526001,
        0.0,
        0.0,
        0.0,
        -0.0,
        -1.2833475317770073e-06,
        -7.877130985259906,
        0.0,
        0.0,
        22.303846359252635,
        -3.633757801900513e-06,
        0.0,
        -126.54936218261719,
        126.2628402709961,
        4.325252532958984,
        1.0
      ],
      "name": "ElectricMeterWBoxes"
    },
    {
      "mesh": 0,
      "name": "ElectricMeterWBoxes_metertex_0"
    },
    {
      "mesh": 1,
      "name": "ElectricMeterWBoxes_wires_0"
    },
    {
      "mesh": 2,
      "name": "ElectricMeterWBoxes_electrictex_0"
    },
    {
      "children": [
        11
      ],
      "matrix": [
        -29.08647719990347,
        -5.518906457566863,
        -95.51711910171437,
        0.0,
        56.63930913109449,
        79.46723428563203,
        -21.83912397841966,
        0.0,
        77.11008775993375,
        -60.45246356562044,
        -19.98834696773717,
        0.0,
        338.47747802734375,
        584.87255859375,
        226.7039794921875,
        1.0
      ],
      "name": "Lamp.001"
    },
    {
      "children": [
        12
      ],
      "matrix": [
        1.0,
        0.0,
        0.0,
        0.0,
        0.0,
        2.220446049250313e-16,
        1.0,
        0.0,
        0.0,
        -1.0,
        2.220446049250313e-16,
        0.0,
        0.0,
        0.0,
        0.0,
        1.0
      ],
      "name": "Object_11"
    },
    {
      "name": "Object_12"
    },
    {
      "children": [
        14
      ],
      "matrix": [
        -29.08647719990347,
        -5.518906457566863,
        -95.51711910171437,
        0.0,
        56.63930913109449,
        79.46723428563203,
        -21.83912397841966,
        0.0,
        77.11008775993375,
        -60.45246356562044,
        -19.98834696773717,
        0.0,
        -75.28495788574219,
        339.4195556640625,
        -300.0848693847656,
        1.0
      ],
      "name": "Lamp.002"
    },
    {
      "children": [
        15
      ],
      "matrix": [
        1.0,
        0.0,
        0.0,
        0.0,
        0.0,
        2.220446049250313e-16,
        1.0,
        0.0,
        0.0,
        -1.0,
        2.220446049250313e-16,
        0.0,
        0.0,
        0.0,
        0.0,
        1.0
      ],
      "name": "Object_14"
    },
    {
      "name": "Object_15"
    }
  ],
  "samplers": [
    {
      "magFilter": 9729,
      "minFilter": 9987,
      "wrapS": 10497,
      "wrapT": 10497
    }
  ],
  "scene": 0,
  "scenes": [
    {
      "name": "Sketchfab_Scene",
      "nodes": [
        0
      ]
    }
  ],
  "textures": [
    {
      "sampler": 0,
      "source": 0
    }
  ]
}
